<svg width="912" height="747" viewBox="0 0 912 747" fill="none" xmlns="http://www.w3.org/2000/svg">
<g filter="url(#filter0_d_0_1)">
<circle cx="374.5" cy="533.5" r="477.5" fill="#FFECC7"/>
</g>
<path d="M722.922 694.016C708.693 696.602 694.411 697.634 680.049 699.032C666.566 700.343 652.096 698.177 638.377 698.375C608.711 698.804 578.909 701.281 549.326 697.862C546.674 697.556 544.027 697.204 541.389 696.797C541.969 696.887 543.879 701.538 544.835 702.357C549.125 706.03 553.663 704.44 558.602 704.311C565.948 704.12 573.324 704.32 580.672 704.319C595.37 704.318 610.069 704.301 624.766 704.237C653.854 704.11 682.943 703.796 712.022 703.056C717.866 702.907 723.793 702.728 729.381 701.016C737.053 698.665 746.374 692.697 750.768 685.942C747.421 684.99 741.476 689.288 738.17 690.371C733.2 692 728.063 693.082 722.922 694.016Z" fill="#FED3AE"/>
<path d="M494.705 725.373C505.502 727.068 518.185 729.044 525.948 721.349C534.877 712.5 515.287 712.319 513.935 705.501C541.702 707.493 567.59 724.754 595.3 722.089C613.13 720.373 608.998 724.494 618.181 728.75C628.566 733.563 639.971 723.977 651.413 723.684C656.134 723.564 661.067 725.031 665.463 723.306C669.86 721.582 671.862 714.17 667.427 712.546C678.008 715.375 688.587 718.204 699.166 721.035C718.058 726.086 716.049 711.914 711.488 710.987C733.921 707.024 753.672 739.659 775.03 727.452C787.489 720.332 780.969 705.278 771.869 708.107C780.153 701.665 792.407 705.877 800.875 712.076C809.343 718.275 817.117 726.516 827.461 728.286C833.161 729.262 838.989 728.859 844.77 728.981C851.071 729.114 853.178 729.114 852.124 731.219C836.939 761.589 742.45 737.976 591.715 745.765C530.027 748.952 485.598 755.444 464.695 735.96C455.5 727.386 486.317 724.056 494.705 725.373Z" fill="#77DFFF"/>
<path d="M650.445 443.027C654.804 456.075 658.153 469.436 661.378 482.808C669.195 515.219 676.352 548.153 675.917 581.491C675.579 607.445 670.641 633.1 665.335 658.509C682.878 648.149 702.744 641.224 723.111 640.664C743.476 640.104 764.33 646.259 779.821 659.492C782.414 639.033 785.009 618.345 782.743 597.848C780.957 581.685 776.182 566.008 770.934 550.617C765.314 534.136 759.115 517.831 751.648 502.1C728.899 454.178 694.65 416.952 653.654 383.96C646.038 377.831 637.631 372.405 629.243 367.514C621.789 363.17 610.627 359.844 606.349 351.627C610.367 359.345 614.895 366.683 619.043 374.291C631.109 396.419 642.443 419.073 650.445 443.027Z" fill="#00C0C0"/>
<path d="M578.469 597.67C593.041 571.388 607.289 544.623 615.654 515.761C623.151 489.893 625.76 462.898 628.213 436.078C629.209 425.19 630.179 414.158 628.392 403.372C631.723 409.782 631.454 417.373 632.617 424.502C634.273 434.658 638.901 444.039 642.804 453.559C654.406 481.85 659.873 512.314 662.685 542.761C665.865 577.188 665.533 613.012 652.099 644.869C651.311 646.736 650.341 648.733 648.509 649.597C646.377 650.602 643.887 649.729 641.658 648.964C631.38 645.438 620.257 644.404 609.506 645.977C594.186 648.218 577.477 653.479 563.18 659.544C557.384 662.003 552.111 665.476 546.493 668.105C544.836 668.879 536.862 670.571 536.3 672.163C538.744 665.243 543.257 659.305 546.933 653.028C552.376 643.737 557.753 634.408 563.081 625.05C567.872 616.639 572.068 604.871 578.469 597.67Z" fill="#00C0C0"/>
<path d="M831.662 729.792C815.9 731.685 811.779 720.615 802.601 709.143C797.843 703.196 782.718 696.142 768.952 706.084C775.58 704.928 782.569 713.784 779.659 719.85C776.748 725.917 765.684 729.122 759.01 728.262C741.317 725.983 722.768 700.476 706.871 708.961C712.313 710.593 722.411 723.861 697.065 720.615C680.052 718.437 674.194 710.861 665.709 712.203C668.765 713.92 671.384 720.128 667.668 720.579C653.195 722.332 641.238 719.85 633.589 729.027C696.959 728.204 702.88 730.818 710.288 725.216C739.151 703.388 739.741 698.174 749.3 690.839C731.128 704.633 707.23 704.802 685.197 704.727C549.317 704.263 544.805 707.061 540.575 697.503C712.412 705.52 748.724 697.758 771.21 666.656C762.019 665.598 752.105 666.741 742.865 667.219C729.894 667.89 721.901 672.467 710.822 678.014C686.903 689.988 658.037 686.638 632.163 687.741C628.937 687.879 627.354 678.332 632.315 672.555C636.634 667.527 646.176 666.197 651.598 670.444C653.793 672.163 655.305 677.355 651.272 678.138C646.689 679.028 638.447 664.903 671.988 667.896C678.352 668.464 679.533 671.399 677.116 676.903C672.948 686.388 665.256 668.427 678.717 669.063C687.194 669.464 702.315 665.56 695.824 691.132C708.402 690.769 723.42 687.553 731.53 679.083C735.319 675.126 735.548 672.329 735.544 667.276C735.462 569.678 707.668 482.354 680.211 436.77C683.633 477.04 689.786 529.809 681.5 589.861C680.718 595.535 669.428 657.505 664.791 658.37C671.864 657.051 677.574 652.062 683.489 647.966C711.207 628.77 754.527 634.397 776.768 659.674C797.318 628.189 782.867 561.686 764.75 526.532C719.662 439.049 695.94 414.621 605.775 351C659.075 444.863 698.576 552.727 655.396 652.729C614.88 634.224 570.922 655.374 535.453 673.297C561.159 629.849 563.333 607.72 581.212 605.04C600.195 602.193 619.78 603.633 638.139 609.246C635.67 601.941 626.444 599.917 618.753 599.359C605.262 598.38 591.704 598.315 578.204 599.161C600.452 556.874 598.895 555.974 612.15 553.815C622.886 552.066 633.927 552.207 644.615 554.228C647.107 544.069 619.496 542.962 604.47 548.994C619.526 505.116 617.735 497.407 641.591 504.207C641.827 499.882 638.106 496.142 633.968 494.865C614.384 488.824 622.3 510.67 624.658 465.134C628.328 464.96 631.998 464.786 635.668 464.612C637.388 463.086 635.123 460.306 632.883 459.783C623.686 457.638 625.725 464.097 629.338 402.348C645.65 446.277 661.168 519.151 663.068 540.055C672.039 638.74 644.534 651.808 619.585 682.826C615.466 687.946 613.648 689.102 607.931 689.399C539.72 692.951 574.332 689.802 516.068 689.978C521.547 705.819 535.845 722.76 552.485 727.456C573.237 733.313 614.625 726.32 616.761 729.025C605.289 714.495 588.288 731.743 552.479 714.891C542.548 710.218 533.52 698.039 514.788 705.11C532.638 713.73 526.52 725.202 517.343 727.495C502.56 731.191 497.71 711.731 465.06 731.742" stroke="black" stroke-miterlimit="10" stroke-linecap="round" stroke-linejoin="round"/>
<defs>
<filter id="filter0_d_0_1" x="-163" y="0" width="1075" height="1075" filterUnits="userSpaceOnUse" color-interpolation-filters="sRGB">
<feFlood flood-opacity="0" result="BackgroundImageFix"/>
<feColorMatrix in="SourceAlpha" type="matrix" values="0 0 0 0 0 0 0 0 0 0 0 0 0 0 0 0 0 0 127 0" result="hardAlpha"/>
<feMorphology radius="27" operator="dilate" in="SourceAlpha" result="effect1_dropShadow_0_1"/>
<feOffset dy="4"/>
<feGaussianBlur stdDeviation="16.5"/>
<feComposite in2="hardAlpha" operator="out"/>
<feColorMatrix type="matrix" values="0 0 0 0 1 0 0 0 0 0.803244 0 0 0 0 0.670617 0 0 0 1 0"/>
<feBlend mode="normal" in2="BackgroundImageFix" result="effect1_dropShadow_0_1"/>
<feBlend mode="normal" in="SourceGraphic" in2="effect1_dropShadow_0_1" result="shape"/>
</filter>
</defs>
</svg>
